<svg width="100" height="26" viewBox="0 0 100 26" fill="none" xmlns="http://www.w3.org/2000/svg">
<path d="M38.2699 10.8466V15.1533C38.2699 15.3129 38.2787 15.4724 38.2964 15.6319C38.3142 15.7914 38.3585 15.9332 38.4294 16.0572C38.518 16.1636 38.6332 16.2522 38.775 16.3231C38.9345 16.394 39.156 16.4294 39.4396 16.4294H40.6891V20.6564H39.4662C38.5269 20.6564 37.6939 20.5944 36.9672 20.4703C36.2406 20.3285 35.6202 20.0804 35.1063 19.7259C34.61 19.3538 34.229 18.8664 33.9631 18.2638C33.6973 17.6435 33.5644 16.8459 33.5644 15.8711V10.8466H31.6237V6.64621H33.5644V3.16359H38.2699V6.64621H40.8486V10.8466H38.2699Z" fill="white"/>
<path d="M45.0027 0C45.3926 0 45.7559 0.062031 46.0927 0.186093C46.4294 0.310156 46.7218 0.496249 46.97 0.744374C47.2358 0.992499 47.4485 1.28493 47.608 1.62167C47.7675 1.95841 47.8473 2.34833 47.8473 2.79141C47.8473 3.71301 47.5637 4.41308 46.9965 4.89161C46.4294 5.35241 45.7648 5.58281 45.0027 5.58281C44.6305 5.58281 44.276 5.52964 43.9393 5.4233C43.6025 5.29924 43.3012 5.12201 43.0354 4.89161C42.7695 4.66121 42.5569 4.37763 42.3974 4.04089C42.2379 3.68643 42.1581 3.26993 42.1581 2.79141C42.1581 2.34833 42.2379 1.95841 42.3974 1.62167C42.5746 1.28493 42.7961 0.992499 43.062 0.744374C43.3278 0.496249 43.6291 0.310156 43.9659 0.186093C44.3026 0.062031 44.6482 0 45.0027 0ZM47.3687 20.6564H42.6898V6.64621H47.3687V20.6564Z" fill="white"/>
<path d="M55.7162 10.8466V15.1533C55.7162 15.3129 55.725 15.4724 55.7427 15.6319C55.7605 15.7914 55.8048 15.9332 55.8757 16.0572C55.9643 16.1636 56.0795 16.2522 56.2213 16.3231C56.3808 16.394 56.6023 16.4294 56.8859 16.4294H58.1354V20.6564H56.9125C55.9731 20.6564 55.1401 20.5944 54.4135 20.4703C53.6868 20.3285 53.0665 20.0804 52.5526 19.7259C52.0563 19.3538 51.6753 18.8664 51.4094 18.2638C51.1436 17.6435 51.0106 16.8459 51.0106 15.8711V10.8466H49.0699V6.64621H51.0106V3.16359H55.7162V6.64621H58.2949V10.8466H55.7162Z" fill="white"/>
<path d="M64.5226 20.6564H59.8171V1.83435H64.5226V20.6564Z" fill="white"/>
<path d="M73.7332 16.9345C74.2826 16.9523 74.7434 16.8548 75.1156 16.6421C75.4878 16.4117 75.7182 16.1724 75.8068 15.9243H80.406C80.211 16.8105 79.9009 17.5637 79.4755 18.184C79.0502 18.7866 78.5362 19.2917 77.9336 19.6994C77.331 20.107 76.6664 20.4083 75.9397 20.6032C75.2131 20.7805 74.4598 20.8691 73.68 20.8691C72.5989 20.8691 71.6153 20.7096 70.7291 20.3906C69.8607 20.0538 69.1163 19.5753 68.496 18.955C67.8757 18.3169 67.3883 17.5548 67.0338 16.6687C66.6971 15.7648 66.5287 14.7369 66.5287 13.5848C66.5287 12.486 66.7148 11.4846 67.087 10.5808C67.4592 9.65915 67.982 8.87047 68.6555 8.21471C69.2758 7.62984 69.9936 7.1779 70.8089 6.85888C71.6418 6.52214 72.59 6.35377 73.6534 6.35377C74.7523 6.35377 75.6827 6.50442 76.4448 6.80572C77.2247 7.10701 77.9336 7.56781 78.5716 8.18813C79.1742 8.80844 79.6262 9.55281 79.9274 10.4213C80.2465 11.2897 80.406 12.2202 80.406 13.2127C80.406 13.5494 80.3883 13.8596 80.3528 14.1431C80.3351 14.409 80.2908 14.6925 80.2199 14.9938H71.181C71.2342 15.5078 71.4558 15.9598 71.8457 16.3497C72.2533 16.7219 72.8825 16.9168 73.7332 16.9345ZM73.6534 10.0756C73.2458 10.0756 72.8825 10.1377 72.5635 10.2617C72.2622 10.3681 72.014 10.5187 71.8191 10.7137C71.6418 10.8909 71.5001 11.0947 71.3937 11.3251C71.3051 11.5378 71.2608 11.7416 71.2608 11.9366H75.9929C75.9929 11.7416 75.9486 11.5378 75.86 11.3251C75.7891 11.0947 75.6562 10.8909 75.4612 10.7137C75.2662 10.5187 75.0181 10.3681 74.7168 10.2617C74.4333 10.1377 74.0788 10.0756 73.6534 10.0756Z" fill="white"/>
<path d="M6.69938 16.5889C7.16018 16.5889 7.51464 16.5092 7.76277 16.3497C8.02862 16.1901 8.22357 15.9863 8.34763 15.7382C8.4717 15.4901 8.54259 15.2154 8.56031 14.9141C8.59576 14.6128 8.61348 14.3292 8.61348 14.0634V6.64619H13.2924V14.4355C13.2924 15.5698 13.1329 16.5446 12.8139 17.3599C12.5126 18.1751 12.0784 18.8486 11.5112 19.3803C10.9441 19.8943 10.2529 20.2753 9.43761 20.5235C8.62234 20.7539 7.69188 20.8691 6.64621 20.8691C5.61826 20.8691 4.69665 20.7539 3.88138 20.5235C3.06612 20.2753 2.37491 19.8943 1.80777 19.3803C1.25835 18.8486 0.815268 18.1751 0.478527 17.3599C0.159509 16.5446 0 15.5698 0 14.4355V6.64619H4.70551V14.0634C4.70551 14.4001 4.74096 14.728 4.81185 15.047C4.88275 15.3483 4.98909 15.6141 5.13087 15.8445C5.29038 16.0749 5.4942 16.261 5.74232 16.4028C6.00817 16.5269 6.32719 16.5889 6.69938 16.5889Z" fill="#17FF9E"/>
<path d="M20.3592 8.18811C20.9972 7.49691 21.653 7.01838 22.3265 6.75253C23 6.48668 23.7621 6.35376 24.6128 6.35376C25.6407 6.37148 26.5269 6.56644 27.2713 6.93863C28.0156 7.31081 28.6448 7.82479 29.1588 8.48055C29.6727 9.11858 30.0627 9.87182 30.3285 10.7403C30.5944 11.6087 30.7273 12.5303 30.7273 13.5051C30.7273 14.5685 30.5944 15.561 30.3285 16.4826C30.0627 17.3865 29.6462 18.1751 29.079 18.8486C28.5296 19.5044 27.8561 20.0184 27.0586 20.3905C26.2788 20.745 25.3837 20.9045 24.3735 20.8691C23.5405 20.8691 22.7696 20.7273 22.0606 20.4437C21.3694 20.1601 20.8377 19.8323 20.4655 19.4601V25.9999H15.76V6.64619H20.1199L20.3592 8.18811ZM23.2835 10.6605C22.805 10.6605 22.3885 10.7491 22.034 10.9264C21.6973 11.0859 21.4049 11.3074 21.1567 11.591C20.9263 11.8568 20.7491 12.167 20.625 12.5214C20.5187 12.8582 20.4655 13.2038 20.4655 13.5582C20.4655 13.9482 20.5187 14.3292 20.625 14.7014C20.7314 15.0559 20.9086 15.3749 21.1567 15.6585C21.4049 15.9243 21.715 16.1458 22.0872 16.3231C22.4594 16.5003 22.9025 16.5889 23.4165 16.5889C23.9482 16.5889 24.3824 16.5003 24.7191 16.3231C25.0736 16.1281 25.3483 15.8889 25.5432 15.6053C25.7559 15.3217 25.8977 15.0027 25.9686 14.6482C26.0572 14.2938 26.1015 13.9304 26.1015 13.5582C26.1015 13.2392 26.0484 12.9114 25.942 12.5746C25.8534 12.2379 25.6939 11.9277 25.4635 11.6441C25.2508 11.3606 24.9672 11.1302 24.6128 10.9529C24.2583 10.758 23.8152 10.6605 23.2835 10.6605Z" fill="#17FF9E"/>
<path d="M80.5169 24.9366V20.8425H99.8707V24.9366H80.5169Z" fill="#17FF9E"/>
</svg>
