<?xml version="1.0" encoding="utf-8"?><svg viewBox="0 0 135 36" xmlns="http://www.w3.org/2000/svg" xmlns:xlink="http://www.w3.org/1999/xlink"><style>:root>svg{display:none}:root>svg:target{display:block}</style><svg viewBox="0 0 27 21" id="check" xmlns="http://www.w3.org/2000/svg"><path fill-rule="evenodd" clip-rule="evenodd" d="M27 4.11 10.219 20.044 0 10.34l4.283-4.067 5.936 5.635L22.717.043 27 4.11Z"/></svg><svg fill="none" viewBox="0 0 36 36" id="close" xmlns="http://www.w3.org/2000/svg"><path fill-rule="evenodd" clip-rule="evenodd" d="M18 20.952 23.048 26 26 23.048 20.952 18 26 12.952 23.048 10 18 15.048 12.952 10 10 12.952 15.048 18 10 23.048 12.952 26 18 20.952Z" fill="#17FF9E"/></svg><svg fill="none" viewBox="0 0 100 26" id="logo" xmlns="http://www.w3.org/2000/svg"><path d="M38.27 10.847v4.306c0 .16.009.32.026.479.018.16.063.301.133.425.089.107.204.195.346.266.16.071.381.106.665.106h1.25v4.227h-1.224c-.94 0-1.772-.062-2.499-.186-.726-.142-1.347-.39-1.86-.744a3.61 3.61 0 0 1-1.144-1.462c-.266-.62-.399-1.418-.399-2.393v-5.024h-1.94v-4.2h1.94V3.163h4.706v3.482h2.579v4.2h-2.58ZM45.003 0c.39 0 .753.062 1.09.186.336.124.629.31.877.558.266.248.479.54.638.878.16.336.24.726.24 1.17 0 .921-.284 1.621-.852 2.1-.567.46-1.231.69-1.993.69a3.51 3.51 0 0 1-1.064-.159 2.895 2.895 0 0 1-.904-.531 2.558 2.558 0 0 1-.638-.851c-.16-.355-.239-.771-.239-1.25 0-.443.08-.833.24-1.17.177-.336.398-.629.664-.877a2.66 2.66 0 0 1 .904-.558A2.976 2.976 0 0 1 45.003 0Zm2.366 20.656h-4.68V6.646h4.68v14.01ZM55.716 10.847v4.306c0 .16.009.32.027.479.017.16.062.301.133.425.088.107.204.195.345.266.16.071.381.106.665.106h1.25v4.227h-1.224c-.939 0-1.772-.062-2.498-.186-.727-.142-1.348-.39-1.861-.744a3.61 3.61 0 0 1-1.144-1.462c-.265-.62-.398-1.418-.398-2.393v-5.024H49.07v-4.2h1.94V3.163h4.706v3.482h2.579v4.2h-2.579ZM64.523 20.656h-4.706V1.834h4.706v18.822ZM73.733 16.934c.55.018 1.01-.08 1.383-.292.372-.23.602-.47.69-.718h4.6c-.195.887-.505 1.64-.93 2.26a5.967 5.967 0 0 1-1.542 1.515 6.567 6.567 0 0 1-1.994.904 9.499 9.499 0 0 1-2.26.266c-1.081 0-2.065-.16-2.95-.478a6.373 6.373 0 0 1-2.234-1.436 6.931 6.931 0 0 1-1.462-2.286c-.337-.904-.505-1.932-.505-3.084 0-1.099.186-2.1.558-3.004a6.822 6.822 0 0 1 1.569-2.366 6.625 6.625 0 0 1 2.153-1.356c.833-.337 1.781-.505 2.844-.505 1.1 0 2.03.15 2.792.452.78.301 1.489.762 2.127 1.382a5.958 5.958 0 0 1 1.355 2.233 8.03 8.03 0 0 1 .479 2.792c0 .336-.018.647-.053.93-.018.266-.062.55-.133.85H71.18c.053.515.275.967.665 1.357.407.372 1.036.567 1.887.584Zm-.08-6.858c-.407 0-.77.062-1.09.186-.3.106-.549.257-.744.452a2.104 2.104 0 0 0-.425.611 1.589 1.589 0 0 0-.133.612h4.732c0-.195-.044-.4-.133-.612a1.36 1.36 0 0 0-.399-.611 1.953 1.953 0 0 0-.744-.452c-.284-.124-.638-.186-1.064-.186Z" fill="#fff"/><path d="M6.7 16.589c.46 0 .815-.08 1.063-.24.266-.159.46-.363.585-.61.124-.249.195-.524.212-.825a7.3 7.3 0 0 0 .053-.85V6.645h4.68v7.79c0 1.134-.16 2.109-.48 2.924-.3.815-.735 1.489-1.302 2.02-.567.514-1.258.895-2.073 1.143-.816.23-1.746.346-2.792.346-1.028 0-1.95-.115-2.765-.346-.815-.248-1.506-.629-2.073-1.143-.55-.531-.993-1.205-1.33-2.02C.16 16.545 0 15.57 0 14.435V6.646h4.706v7.417c0 .337.035.665.106.984.07.301.177.567.319.797.16.23.363.417.611.559.266.124.585.186.957.186ZM20.36 8.188c.637-.691 1.293-1.17 1.966-1.435.674-.266 1.436-.4 2.287-.4 1.028.018 1.914.213 2.658.586A5.489 5.489 0 0 1 29.16 8.48c.514.638.904 1.39 1.17 2.26.265.868.398 1.79.398 2.764 0 1.063-.133 2.056-.399 2.978a6.447 6.447 0 0 1-1.249 2.366 5.796 5.796 0 0 1-2.02 1.541c-.78.355-1.675.514-2.686.48a6.17 6.17 0 0 1-2.312-.426c-.692-.284-1.223-.612-1.596-.984V26H15.76V6.646h4.36l.24 1.542Zm2.924 2.473c-.479 0-.895.088-1.25.265-.337.16-.63.381-.877.665-.23.266-.408.576-.532.93-.106.337-.16.683-.16 1.037 0 .39.054.771.16 1.143.106.355.284.674.532.957.248.266.558.488.93.665.372.177.816.266 1.33.266.531 0 .965-.089 1.302-.266.355-.195.63-.434.824-.718.213-.283.355-.602.426-.957.088-.354.133-.718.133-1.09 0-.319-.054-.647-.16-.983a2.454 2.454 0 0 0-.479-.93 2.362 2.362 0 0 0-.85-.692c-.355-.195-.798-.292-1.33-.292ZM80.517 24.937v-4.095H99.87v4.095H80.517Z" fill="#17FF9E"/></svg><svg fill="none" viewBox="0 0 24 24" id="mail" xmlns="http://www.w3.org/2000/svg"><path fill-rule="evenodd" clip-rule="evenodd" d="M21 8.25 12 15 3 8.25V18h18V8.25ZM0 6V3h24v18H0V6Zm5 0 7 5.25L19 6H5Z" fill="#17FF9E"/></svg><svg fill="none" viewBox="0 0 24 24" id="phone" xmlns="http://www.w3.org/2000/svg"><g clip-path="url(#ea)"><path fill-rule="evenodd" clip-rule="evenodd" d="m6.343 13.414-.707-.707L2.808 9.88a5 5 0 1 1 7.07 0l-1.413 1.414 4.242 4.243 1.414-1.415a5 5 0 1 1 0 7.071l-3.535-3.535-4.243-4.243ZM7.757 4.93A2 2 0 1 0 4.93 7.757l1.414 1.415 1.414-1.415a2 2 0 0 0 0-2.828Zm11.314 11.314a2 2 0 0 0-2.828 0l-1.414 1.414 1.414 1.414a2 2 0 0 0 2.828-2.828Z" fill="#17FF9E"/></g><defs><clipPath id="ea"><path fill="#fff" d="M0 0h24v24H0z"/></clipPath></defs></svg><svg viewBox="0 0 20 20" id="union" xmlns="http://www.w3.org/2000/svg"><path fill-rule="evenodd" clip-rule="evenodd" d="M10 13.69 16.31 20 20 16.31 13.69 10 20 3.69 16.31 0 10 6.31 3.69 0 0 3.69 6.31 10 0 16.31 3.69 20 10 13.69Z"/></svg><svg fill="none" viewBox="0 0 135 27" id="upjournal" xmlns="http://www.w3.org/2000/svg"><path d="M7.019 16.869c.468 0 .828-.081 1.08-.243a1.51 1.51 0 0 0 .594-.621 2.13 2.13 0 0 0 .216-.837c.036-.306.054-.594.054-.864V6.771h4.752v7.911c0 1.152-.162 2.142-.486 2.97-.306.828-.747 1.512-1.323 2.052-.576.522-1.278.909-2.106 1.161-.828.234-1.773.351-2.835.351-1.044 0-1.98-.117-2.808-.351-.828-.252-1.53-.639-2.106-1.161-.558-.54-1.008-1.224-1.35-2.052-.324-.828-.486-1.818-.486-2.97V6.771h4.779v7.533c0 .342.036.675.108.999.072.306.18.576.324.81.162.234.369.423.621.567.27.126.594.189.972.189Zm13.873-8.532c.648-.702 1.314-1.188 1.998-1.458.684-.27 1.458-.405 2.322-.405 1.044.018 1.944.216 2.7.594.756.378 1.395.9 1.917 1.566.522.648.918 1.413 1.188 2.295.27.882.405 1.818.405 2.808 0 1.08-.135 2.088-.405 3.024a6.55 6.55 0 0 1-1.269 2.403 5.888 5.888 0 0 1-2.052 1.566c-.792.36-1.7.522-2.727.486a6.267 6.267 0 0 1-2.349-.432c-.702-.288-1.242-.621-1.62-.999v6.642h-4.779V6.771h4.428l.243 1.566Zm2.97 2.511c-.486 0-.909.09-1.269.27a2.72 2.72 0 0 0-.89.675c-.235.27-.415.585-.54.945A3.476 3.476 0 0 0 21 13.791c0 .396.054.783.162 1.161.108.36.288.684.54.972.252.27.567.495.945.675.378.18.828.27 1.35.27.54 0 .981-.09 1.323-.27.36-.198.64-.441.837-.729.216-.288.36-.612.432-.972.09-.36.135-.729.135-1.107 0-.324-.054-.657-.162-.999a2.492 2.492 0 0 0-.486-.945 2.396 2.396 0 0 0-.864-.702c-.36-.198-.81-.297-1.35-.297Z" fill="#17FF9E"/><path d="M35.68.021c.397 0 .766.063 1.108.189.342.126.639.315.89.567.27.252.478.549.622.891.162.342.243.738.243 1.188 0 .972-.288 1.692-.864 2.16-.558.45-1.224.675-1.998.675-.378 0-.738-.054-1.08-.162a3.298 3.298 0 0 1-.945-.54 2.6 2.6 0 0 1-.648-.864c-.144-.36-.216-.783-.216-1.269 0-.45.08-.846.243-1.188a2.91 2.91 0 0 1 .648-.891A3.006 3.006 0 0 1 35.68.021Zm-2.43 6.75h4.78v15.174c0 1.674-.36 2.925-1.08 3.753-.72.828-1.962 1.242-3.726 1.242H30.74v-4.293h1.107c.36 0 .639-.063.837-.189.198-.108.333-.234.405-.378a.898.898 0 0 0 .135-.486c.018-.162.027-.297.027-.405V6.771ZM47.76 21.216a9.002 9.002 0 0 1-2.916-.459 6.703 6.703 0 0 1-2.322-1.431c-.666-.63-1.197-1.404-1.593-2.322-.378-.918-.567-1.98-.567-3.186 0-1.152.198-2.187.594-3.105.396-.918.927-1.692 1.593-2.322A6.703 6.703 0 0 1 44.87 6.96a8.465 8.465 0 0 1 2.889-.486c1.044 0 2.007.171 2.889.513.9.324 1.674.801 2.322 1.431.666.63 1.188 1.404 1.566 2.322.396.918.594 1.944.594 3.078 0 1.206-.19 2.277-.567 3.213-.36.918-.873 1.692-1.54 2.322a6.581 6.581 0 0 1-2.321 1.404c-.882.306-1.863.459-2.943.459Zm0-10.287c-.522 0-.963.099-1.323.297a2.753 2.753 0 0 0-.837.729c-.198.27-.342.576-.432.918-.09.342-.135.666-.135.972 0 .378.045.747.135 1.107.09.342.243.648.459.918.216.27.495.495.837.675.342.162.774.243 1.296.243.504 0 .927-.081 1.269-.243.36-.18.639-.405.837-.675.216-.288.369-.603.459-.945.09-.36.135-.72.135-1.08 0-.288-.045-.603-.135-.945a3.005 3.005 0 0 0-.432-.945 2.385 2.385 0 0 0-.837-.729c-.36-.198-.792-.297-1.296-.297Zm16.108 5.94c.468 0 .828-.081 1.08-.243a1.51 1.51 0 0 0 .594-.621 2.13 2.13 0 0 0 .216-.837c.036-.306.054-.594.054-.864V6.771h4.752v7.911c0 1.152-.162 2.142-.486 2.97-.306.828-.747 1.512-1.323 2.052-.576.522-1.278.909-2.106 1.161-.828.234-1.773.351-2.835.351-1.044 0-1.98-.117-2.808-.351-.828-.252-1.53-.639-2.106-1.161-.558-.54-1.008-1.224-1.35-2.052-.324-.828-.486-1.818-.486-2.97V6.771h4.779v7.533c0 .342.036.675.108.999.072.306.18.576.324.81.162.234.369.423.62.567.27.126.595.189.973.189Zm13.71-8.748c.27-.396.568-.702.892-.918.324-.216.648-.378.972-.486.324-.108.648-.171.972-.189a9.544 9.544 0 0 1 1.7-.027c.235 0 .388.009.46.027v4.617h-.918c-.504 0-.99.045-1.458.135-.45.09-.855.261-1.215.513-.342.234-.621.567-.837.999-.198.432-.297 1.008-.297 1.728V21h-4.78V6.771h4.186l.324 1.35Zm11.132-.054a4.584 4.584 0 0 1 1.053-.837 5.326 5.326 0 0 1 1.107-.486c.378-.108.738-.18 1.08-.216.342-.036.63-.054.864-.054.864 0 1.62.144 2.268.432.648.27 1.206.666 1.674 1.188.522.612.882 1.359 1.08 2.241.216.864.324 1.8.324 2.808V21h-4.78v-7.452c0-.288-.035-.585-.107-.891a2.52 2.52 0 0 0-.324-.891 1.798 1.798 0 0 0-.675-.648c-.288-.18-.657-.27-1.107-.27-.396 0-.765.099-1.107.297-.342.18-.603.414-.783.702-.162.27-.28.567-.351.891-.072.324-.108.63-.108.918V21h-4.78V6.744h4.402l.27 1.323Zm20.554 11.07c-.36.54-.756.954-1.188 1.242-.414.27-.837.468-1.269.594a4.835 4.835 0 0 1-1.161.216c-.36.018-.63.027-.81.027-.594 0-1.179-.09-1.755-.27a4.177 4.177 0 0 1-1.485-.837 4.364 4.364 0 0 1-1.053-1.404c-.27-.576-.405-1.269-.405-2.079 0-.828.207-1.548.621-2.16.432-.612.945-1.071 1.539-1.377a5.954 5.954 0 0 1 1.377-.486 8.814 8.814 0 0 1 1.512-.243 23.556 23.556 0 0 1 1.62-.054h2.322a1.773 1.773 0 0 0-.567-1.269c-.342-.36-.828-.54-1.458-.54-.468 0-.9.099-1.296.297-.378.198-.594.45-.648.756h-4.752c.108-.882.369-1.638.783-2.268a5.114 5.114 0 0 1 1.539-1.566 6.67 6.67 0 0 1 2.025-.918 8.818 8.818 0 0 1 2.295-.297c.954 0 1.782.099 2.484.297.72.198 1.341.495 1.863.891 1.512 1.098 2.268 2.988 2.268 5.67V21h-4.401v-1.863Zm-2.754-3.888c-.45 0-.837.09-1.161.27-.324.18-.486.477-.486.891 0 .378.144.666.432.864.306.198.675.297 1.107.297a2.88 2.88 0 0 0 1.053-.189c.342-.126.63-.297.864-.513.252-.234.45-.486.594-.756a1.87 1.87 0 0 0 .27-.864h-2.673ZM120.958 21h-4.779V1.884h4.779V21Zm.688 4.347v-4.158h12.906v4.158h-12.906Z" fill="#fff"/></svg><svg fill="none" viewBox="0 0 24 24" id="user" xmlns="http://www.w3.org/2000/svg"><path fill-rule="evenodd" clip-rule="evenodd" d="M12 11a3 3 0 1 0 0-6 3 3 0 0 0 0 6Zm0 3a6 6 0 1 0 0-12 6 6 0 0 0 0 12ZM18 24h3a9 9 0 1 0-18 0h3a6 6 0 0 1 12 0Z" fill="#17FF9E"/></svg></svg>