<svg width="24" height="24" viewBox="0 0 24 24" fill="none" xmlns="http://www.w3.org/2000/svg">
<g clip-path="url(#clip0_70_2139)">
<path fill-rule="evenodd" clip-rule="evenodd" d="M6.34326 13.4142L5.63615 12.7071L2.80773 9.8787C0.855106 7.92607 0.855107 4.76025 2.80773 2.80763C4.76035 0.855007 7.92617 0.855007 9.8788 2.80763C11.8314 4.76025 11.8314 7.92608 9.8788 9.8787L8.46458 11.2929L12.7072 15.5356L14.1214 14.1213C16.0741 12.1687 19.2399 12.1687 21.1925 14.1213C23.1451 16.074 23.1451 19.2398 21.1925 21.1924C19.2399 23.145 16.0741 23.145 14.1214 21.1924L10.5859 17.6569L6.34326 13.4142ZM7.75748 4.92895C6.97643 4.1479 5.7101 4.1479 4.92905 4.92895C4.148 5.71 4.148 6.97633 4.92905 7.75738L6.34326 9.17159L7.75748 7.75738C8.53852 6.97633 8.53852 5.71 7.75748 4.92895ZM19.0712 16.2427C18.2901 15.4616 17.0238 15.4616 16.2428 16.2427L14.8285 17.6569L16.2428 19.0711C17.0238 19.8521 18.2901 19.8521 19.0712 19.0711C19.8522 18.29 19.8522 17.0237 19.0712 16.2427Z" fill="#17FF9E"/>
</g>
<defs>
<clipPath id="clip0_70_2139">
<rect width="24" height="24" fill="white"/>
</clipPath>
</defs>
</svg>
