<svg width="135" height="27" viewBox="0 0 135 27" fill="none" xmlns="http://www.w3.org/2000/svg">
<path d="M7.019 16.869C7.487 16.869 7.847 16.788 8.099 16.626C8.369 16.464 8.567 16.257 8.693 16.005C8.819 15.753 8.891 15.474 8.909 15.168C8.945 14.862 8.963 14.574 8.963 14.304V6.771H13.715V14.682C13.715 15.834 13.553 16.824 13.229 17.652C12.923 18.48 12.482 19.164 11.906 19.704C11.33 20.226 10.628 20.613 9.8 20.865C8.972 21.099 8.027 21.216 6.965 21.216C5.921 21.216 4.985 21.099 4.157 20.865C3.329 20.613 2.627 20.226 2.051 19.704C1.493 19.164 1.043 18.48 0.701 17.652C0.377 16.824 0.215 15.834 0.215 14.682V6.771H4.994V14.304C4.994 14.646 5.03 14.979 5.102 15.303C5.174 15.609 5.282 15.879 5.426 16.113C5.588 16.347 5.795 16.536 6.047 16.68C6.317 16.806 6.641 16.869 7.019 16.869ZM20.8921 8.337C21.5401 7.635 22.2061 7.149 22.8901 6.879C23.5741 6.609 24.3481 6.474 25.2121 6.474C26.2561 6.492 27.1561 6.69 27.9121 7.068C28.6681 7.446 29.3071 7.968 29.8291 8.634C30.3511 9.282 30.7471 10.047 31.0171 10.929C31.2871 11.811 31.4221 12.747 31.4221 13.737C31.4221 14.817 31.2871 15.825 31.0171 16.761C30.7471 17.679 30.3241 18.48 29.7481 19.164C29.1901 19.83 28.5061 20.352 27.6961 20.73C26.9041 21.09 25.9951 21.252 24.9691 21.216C24.1231 21.216 23.3401 21.072 22.6201 20.784C21.9181 20.496 21.3781 20.163 21.0001 19.785V26.427H16.2211V6.771H20.6491L20.8921 8.337ZM23.8621 10.848C23.3761 10.848 22.9531 10.938 22.5931 11.118C22.2511 11.28 21.9541 11.505 21.7021 11.793C21.4681 12.063 21.2881 12.378 21.1621 12.738C21.0541 13.08 21.0001 13.431 21.0001 13.791C21.0001 14.187 21.0541 14.574 21.1621 14.952C21.2701 15.312 21.4501 15.636 21.7021 15.924C21.9541 16.194 22.2691 16.419 22.6471 16.599C23.0251 16.779 23.4751 16.869 23.9971 16.869C24.5371 16.869 24.9781 16.779 25.3201 16.599C25.6801 16.401 25.9591 16.158 26.1571 15.87C26.3731 15.582 26.5171 15.258 26.5891 14.898C26.6791 14.538 26.7241 14.169 26.7241 13.791C26.7241 13.467 26.6701 13.134 26.5621 12.792C26.4721 12.45 26.3101 12.135 26.0761 11.847C25.8601 11.559 25.5721 11.325 25.2121 11.145C24.8521 10.947 24.4021 10.848 23.8621 10.848Z" fill="#17FF9E"/>
<path d="M35.6806 0.0209997C36.0766 0.0209997 36.4456 0.0839995 36.7876 0.209999C37.1296 0.335999 37.4266 0.525 37.6786 0.777C37.9486 1.029 38.1556 1.326 38.2996 1.668C38.4616 2.01 38.5426 2.406 38.5426 2.856C38.5426 3.828 38.2546 4.548 37.6786 5.016C37.1206 5.466 36.4546 5.691 35.6806 5.691C35.3026 5.691 34.9426 5.637 34.6006 5.529C34.2586 5.403 33.9436 5.223 33.6556 4.989C33.3856 4.755 33.1696 4.467 33.0076 4.125C32.8636 3.765 32.7916 3.342 32.7916 2.856C32.7916 2.406 32.8726 2.01 33.0346 1.668C33.1966 1.326 33.4126 1.029 33.6826 0.777C33.9706 0.525 34.2856 0.335999 34.6276 0.209999C34.9696 0.0839995 35.3206 0.0209997 35.6806 0.0209997ZM33.2506 6.771H38.0296V21.945C38.0296 23.619 37.6696 24.87 36.9496 25.698C36.2296 26.526 34.9876 26.94 33.2236 26.94H30.7396V22.647H31.8466C32.2066 22.647 32.4856 22.584 32.6836 22.458C32.8816 22.35 33.0166 22.224 33.0886 22.08C33.1786 21.936 33.2236 21.774 33.2236 21.594C33.2416 21.432 33.2506 21.297 33.2506 21.189V6.771ZM47.7588 21.216C46.7148 21.216 45.7428 21.063 44.8428 20.757C43.9608 20.433 43.1868 19.956 42.5208 19.326C41.8548 18.696 41.3238 17.922 40.9278 17.004C40.5498 16.086 40.3608 15.024 40.3608 13.818C40.3608 12.666 40.5588 11.631 40.9548 10.713C41.3508 9.795 41.8818 9.021 42.5478 8.391C43.2138 7.761 43.9878 7.284 44.8698 6.96C45.7698 6.636 46.7328 6.474 47.7588 6.474C48.8028 6.474 49.7658 6.645 50.6478 6.987C51.5478 7.311 52.3218 7.788 52.9698 8.418C53.6358 9.048 54.1578 9.822 54.5358 10.74C54.9318 11.658 55.1298 12.684 55.1298 13.818C55.1298 15.024 54.9408 16.095 54.5628 17.031C54.2028 17.949 53.6898 18.723 53.0238 19.353C52.3758 19.965 51.6018 20.433 50.7018 20.757C49.8198 21.063 48.8388 21.216 47.7588 21.216ZM47.7588 10.929C47.2368 10.929 46.7958 11.028 46.4358 11.226C46.0938 11.424 45.8148 11.667 45.5988 11.955C45.4008 12.225 45.2568 12.531 45.1668 12.873C45.0768 13.215 45.0318 13.539 45.0318 13.845C45.0318 14.223 45.0768 14.592 45.1668 14.952C45.2568 15.294 45.4098 15.6 45.6258 15.87C45.8418 16.14 46.1208 16.365 46.4628 16.545C46.8048 16.707 47.2368 16.788 47.7588 16.788C48.2628 16.788 48.6858 16.707 49.0278 16.545C49.3878 16.365 49.6668 16.14 49.8648 15.87C50.0808 15.582 50.2338 15.267 50.3238 14.925C50.4138 14.565 50.4588 14.205 50.4588 13.845C50.4588 13.557 50.4138 13.242 50.3238 12.9C50.2338 12.558 50.0898 12.243 49.8918 11.955C49.6938 11.667 49.4148 11.424 49.0548 11.226C48.6948 11.028 48.2628 10.929 47.7588 10.929ZM63.8667 16.869C64.3347 16.869 64.6947 16.788 64.9467 16.626C65.2167 16.464 65.4147 16.257 65.5407 16.005C65.6667 15.753 65.7387 15.474 65.7567 15.168C65.7927 14.862 65.8107 14.574 65.8107 14.304V6.771H70.5627V14.682C70.5627 15.834 70.4007 16.824 70.0767 17.652C69.7707 18.48 69.3297 19.164 68.7537 19.704C68.1777 20.226 67.4757 20.613 66.6477 20.865C65.8197 21.099 64.8747 21.216 63.8127 21.216C62.7687 21.216 61.8327 21.099 61.0047 20.865C60.1767 20.613 59.4747 20.226 58.8987 19.704C58.3407 19.164 57.8907 18.48 57.5487 17.652C57.2247 16.824 57.0627 15.834 57.0627 14.682V6.771H61.8417V14.304C61.8417 14.646 61.8777 14.979 61.9497 15.303C62.0217 15.609 62.1297 15.879 62.2737 16.113C62.4357 16.347 62.6427 16.536 62.8947 16.68C63.1647 16.806 63.4887 16.869 63.8667 16.869ZM77.5778 8.121C77.8478 7.725 78.1448 7.419 78.4688 7.203C78.7928 6.987 79.1168 6.825 79.4408 6.717C79.7648 6.609 80.0888 6.546 80.4128 6.528C80.7548 6.492 81.0878 6.474 81.4118 6.474C81.6458 6.474 81.8798 6.483 82.1138 6.501C82.3478 6.501 82.5008 6.51 82.5728 6.528V11.145H81.6548C81.1508 11.145 80.6648 11.19 80.1968 11.28C79.7468 11.37 79.3418 11.541 78.9818 11.793C78.6398 12.027 78.3608 12.36 78.1448 12.792C77.9468 13.224 77.8478 13.8 77.8478 14.52V21H73.0688V6.771H77.2538L77.5778 8.121ZM88.7086 8.067C89.0326 7.725 89.3836 7.446 89.7616 7.23C90.1396 7.014 90.5086 6.852 90.8686 6.744C91.2466 6.636 91.6066 6.564 91.9486 6.528C92.2906 6.492 92.5786 6.474 92.8126 6.474C93.6766 6.474 94.4326 6.618 95.0806 6.906C95.7286 7.176 96.2866 7.572 96.7546 8.094C97.2766 8.706 97.6366 9.453 97.8346 10.335C98.0506 11.199 98.1586 12.135 98.1586 13.143V21H93.3796V13.548C93.3796 13.26 93.3436 12.963 93.2716 12.657C93.2176 12.333 93.1096 12.036 92.9476 11.766C92.7856 11.496 92.5606 11.28 92.2726 11.118C91.9846 10.938 91.6156 10.848 91.1656 10.848C90.7696 10.848 90.4006 10.947 90.0586 11.145C89.7166 11.325 89.4556 11.559 89.2756 11.847C89.1136 12.117 88.9966 12.414 88.9246 12.738C88.8526 13.062 88.8166 13.368 88.8166 13.656V21H84.0376V6.744H88.4386L88.7086 8.067ZM109.263 19.137C108.903 19.677 108.507 20.091 108.075 20.379C107.661 20.649 107.238 20.847 106.806 20.973C106.392 21.099 106.005 21.171 105.645 21.189C105.285 21.207 105.015 21.216 104.835 21.216C104.241 21.216 103.656 21.126 103.08 20.946C102.522 20.766 102.027 20.487 101.595 20.109C101.163 19.731 100.812 19.263 100.542 18.705C100.272 18.129 100.137 17.436 100.137 16.626C100.137 15.798 100.344 15.078 100.758 14.466C101.19 13.854 101.703 13.395 102.297 13.089C102.729 12.873 103.188 12.711 103.674 12.603C104.178 12.477 104.682 12.396 105.186 12.36C105.708 12.324 106.248 12.306 106.806 12.306H109.128C109.11 11.802 108.921 11.379 108.561 11.037C108.219 10.677 107.733 10.497 107.103 10.497C106.635 10.497 106.203 10.596 105.807 10.794C105.429 10.992 105.213 11.244 105.159 11.55H100.407C100.515 10.668 100.776 9.912 101.19 9.282C101.604 8.634 102.117 8.112 102.729 7.716C103.341 7.302 104.016 6.996 104.754 6.798C105.492 6.6 106.257 6.501 107.049 6.501C108.003 6.501 108.831 6.6 109.533 6.798C110.253 6.996 110.874 7.293 111.396 7.689C112.908 8.787 113.664 10.677 113.664 13.359V21H109.263V19.137ZM106.509 15.249C106.059 15.249 105.672 15.339 105.348 15.519C105.024 15.699 104.862 15.996 104.862 16.41C104.862 16.788 105.006 17.076 105.294 17.274C105.6 17.472 105.969 17.571 106.401 17.571C106.779 17.571 107.13 17.508 107.454 17.382C107.796 17.256 108.084 17.085 108.318 16.869C108.57 16.635 108.768 16.383 108.912 16.113C109.074 15.843 109.164 15.555 109.182 15.249H106.509ZM120.958 21H116.179V1.884H120.958V21ZM121.646 25.347V21.189H134.552V25.347H121.646Z" fill="white"/>
</svg>
