<svg width="24" height="24" viewBox="0 0 24 24" fill="none" xmlns="http://www.w3.org/2000/svg">
<path fill-rule="evenodd" clip-rule="evenodd" d="M12 11C13.6569 11 15 9.65685 15 8C15 6.34315 13.6569 5 12 5C10.3431 5 9 6.34315 9 8C9 9.65685 10.3431 11 12 11ZM12 14C15.3137 14 18 11.3137 18 8C18 4.68629 15.3137 2 12 2C8.68629 2 6 4.68629 6 8C6 11.3137 8.68629 14 12 14Z" fill="#17FF9E"/>
<path fill-rule="evenodd" clip-rule="evenodd" d="M18 24H21C21 19.0294 16.9706 15 12 15C7.02944 15 3 19.0294 3 24H6C6 20.6863 8.68629 18 12 18C15.3137 18 18 20.6863 18 24Z" fill="#17FF9E"/>
</svg>
